REM DIRINDEX 1\2,1\3,1\4,1\5
REM DIRNAME cjc005,folder01,folder02,folder03,folder04
TITLE ""
FILE "P1Q_j_1831-1844.mp3" MP3
  TRACK 01 AUDIO
    TITLE "3:cjc005_0842"
    INDEX 01 00:00:00
  TRACK 02 AUDIO
    TITLE "0:"
    INDEX 01 00:01:11
  TRACK 03 AUDIO
    TITLE "4:cjc005_0843"
    INDEX 01 00:01:44
  TRACK 04 AUDIO
    TITLE "0:"
    INDEX 01 00:03:00
  TRACK 05 AUDIO
    TITLE "5:cjc005_0844"
    INDEX 01 00:03:25
  TRACK 06 AUDIO
    TITLE "0:"
    INDEX 01 00:07:37
  TRACK 07 AUDIO
    TITLE "3:cjc005_0845"
    INDEX 01 00:08:17
  TRACK 08 AUDIO
    TITLE "0:"
    INDEX 01 00:09:42
  TRACK 09 AUDIO
    TITLE "4:cjc005_0846"
    INDEX 01 00:10:00
  TRACK 10 AUDIO
    TITLE "0:"
    INDEX 01 00:12:01
  TRACK 11 AUDIO
    TITLE "5:cjc005_0847"
    INDEX 01 00:12:26
  TRACK 12 AUDIO
    TITLE "0:"
    INDEX 01 00:17:12
  TRACK 13 AUDIO
    TITLE "3:cjc005_0848"
    INDEX 01 00:17:67
  TRACK 14 AUDIO
    TITLE "0:"
    INDEX 01 00:19:11
  TRACK 15 AUDIO
    TITLE "4:cjc005_0849"
    INDEX 01 00:19:44
  TRACK 16 AUDIO
    TITLE "0:"
    INDEX 01 00:20:69
  TRACK 17 AUDIO
    TITLE "5:cjc005_0850"
    INDEX 01 00:21:19
  TRACK 18 AUDIO
    TITLE "0:"
    INDEX 01 00:24:33
  TRACK 19 AUDIO
    TITLE "3:cjc005_0851"
    INDEX 01 00:25:13
  TRACK 20 AUDIO
    TITLE "0:"
    INDEX 01 00:26:36
  TRACK 21 AUDIO
    TITLE "4:cjc005_0852"
    INDEX 01 00:26:64
  TRACK 22 AUDIO
    TITLE "0:"
    INDEX 01 00:28:06
  TRACK 23 AUDIO
    TITLE "5:cjc005_0853"
    INDEX 01 00:28:25
  TRACK 24 AUDIO
    TITLE "0:"
    INDEX 01 00:31:51
  TRACK 25 AUDIO
    TITLE "3:cjc005_0854"
    INDEX 01 00:32:41
  TRACK 26 AUDIO
    TITLE "0:"
    INDEX 01 00:33:62
  TRACK 27 AUDIO
    TITLE "4:cjc005_0855"
    INDEX 01 00:34:16
  TRACK 28 AUDIO
    TITLE "0:"
    INDEX 01 00:35:08
  TRACK 29 AUDIO
    TITLE "5:cjc005_0856"
    INDEX 01 00:35:35
  TRACK 30 AUDIO
    TITLE "0:"
    INDEX 01 00:39:23
  TRACK 31 AUDIO
    TITLE "3:cjc005_0857"
    INDEX 01 00:40:07
  TRACK 32 AUDIO
    TITLE "0:"
    INDEX 01 00:41:22
  TRACK 33 AUDIO
    TITLE "4:cjc005_0858"
    INDEX 01 00:41:47
  TRACK 34 AUDIO
    TITLE "0:"
    INDEX 01 00:42:57
  TRACK 35 AUDIO
    TITLE "5:cjc005_0859"
    INDEX 01 00:43:07
  TRACK 36 AUDIO
    TITLE "0:"
    INDEX 01 00:46:72
  TRACK 37 AUDIO
    TITLE "3:cjc005_0860"
    INDEX 01 00:47:58
  TRACK 38 AUDIO
    TITLE "0:"
    INDEX 01 00:48:73
  TRACK 39 AUDIO
    TITLE "4:cjc005_0861"
    INDEX 01 00:49:25
  TRACK 40 AUDIO
    TITLE "0:"
    INDEX 01 00:50:27
  TRACK 41 AUDIO
    TITLE "5:cjc005_0862"
    INDEX 01 00:50:52
  TRACK 42 AUDIO
    TITLE "0:"
    INDEX 01 00:53:51
  TRACK 43 AUDIO
    TITLE "3:cjc005_0863"
    INDEX 01 00:54:30
  TRACK 44 AUDIO
    TITLE "0:"
    INDEX 01 00:55:46
  TRACK 45 AUDIO
    TITLE "4:cjc005_0864"
    INDEX 01 00:56:02
  TRACK 46 AUDIO
    TITLE "0:"
    INDEX 01 00:57:33
  TRACK 47 AUDIO
    TITLE "5:cjc005_0865"
    INDEX 01 00:57:58
  TRACK 48 AUDIO
    TITLE "0:"
    INDEX 01 01:00:47
  TRACK 49 AUDIO
    TITLE "3:cjc005_0866"
    INDEX 01 01:01:33
  TRACK 50 AUDIO
    TITLE "0:"
    INDEX 01 01:02:63
  TRACK 51 AUDIO
    TITLE "4:cjc005_0867"
    INDEX 01 01:03:20
  TRACK 52 AUDIO
    TITLE "0:"
    INDEX 01 01:05:05
  TRACK 53 AUDIO
    TITLE "5:cjc005_0868"
    INDEX 01 01:05:26
  TRACK 54 AUDIO
    TITLE "0:"
    INDEX 01 01:09:44
  TRACK 55 AUDIO
    TITLE "3:cjc005_0869"
    INDEX 01 01:10:28
  TRACK 56 AUDIO
    TITLE "0:"
    INDEX 01 01:11:47
  TRACK 57 AUDIO
    TITLE "4:cjc005_0870"
    INDEX 01 01:12:07
  TRACK 58 AUDIO
    TITLE "0:"
    INDEX 01 01:13:61
  TRACK 59 AUDIO
    TITLE "5:cjc005_0871"
    INDEX 01 01:14:17
  TRACK 60 AUDIO
    TITLE "0:"
    INDEX 01 01:18:13
  TRACK 61 AUDIO
    TITLE "3:cjc005_0872"
    INDEX 01 01:18:72
  TRACK 62 AUDIO
    TITLE "0:"
    INDEX 01 01:20:18
  TRACK 63 AUDIO
    TITLE "4:cjc005_0873"
    INDEX 01 01:20:42
  TRACK 64 AUDIO
    TITLE "0:"
    INDEX 01 01:22:17
  TRACK 65 AUDIO
    TITLE "5:cjc005_0874"
    INDEX 01 01:22:42
  TRACK 66 AUDIO
    TITLE "0:"
    INDEX 01 01:26:52
  TRACK 67 AUDIO
    TITLE "3:cjc005_0875"
    INDEX 01 01:27:34
  TRACK 68 AUDIO
    TITLE "0:"
    INDEX 01 01:28:53
  TRACK 69 AUDIO
    TITLE "4:cjc005_0876"
    INDEX 01 01:29:05
  TRACK 70 AUDIO
    TITLE "0:"
    INDEX 01 01:30:28
  TRACK 71 AUDIO
    TITLE "5:cjc005_0877"
    INDEX 01 01:30:56
  TRACK 72 AUDIO
    TITLE "0:"
    INDEX 01 01:35:35
  TRACK 73 AUDIO
    TITLE "3:cjc005_0878"
    INDEX 01 01:36:19
  TRACK 74 AUDIO
    TITLE "0:"
    INDEX 01 01:37:40
  TRACK 75 AUDIO
    TITLE "4:cjc005_0879"
    INDEX 01 01:38:04
  TRACK 76 AUDIO
    TITLE "0:"
    INDEX 01 01:39:39
  TRACK 77 AUDIO
    TITLE "5:cjc005_0880"
    INDEX 01 01:39:63
  TRACK 78 AUDIO
    TITLE "0:"
    INDEX 01 01:44:30
  TRACK 79 AUDIO
    TITLE "3:cjc005_0881"
    INDEX 01 01:45:04
  TRACK 80 AUDIO
    TITLE "0:"
    INDEX 01 01:46:25
  TRACK 81 AUDIO
    TITLE "4:cjc005_0882"
    INDEX 01 01:46:55
  TRACK 82 AUDIO
    TITLE "0:"
    INDEX 01 01:48:24
  TRACK 83 AUDIO
    TITLE "5:cjc005_0883"
    INDEX 01 01:48:48
  TRACK 84 AUDIO
    TITLE "0:"
    INDEX 01 01:52:65
